<svg xmlns="http://www.w3.org/2000/svg" viewBox="0 0 256 256">
  <rect x="40" y="100" width="176" height="120" rx="8" fill="#FF8C42"/>
  <rect x="50" y="110" width="156" height="100" rx="4" fill="#FFA366"/>
  <rect x="60" y="130" width="50" height="4" rx="2" fill="#FF8C42"/>
  <rect x="60" y="150" width="70" height="4" rx="2" fill="#FF8C42"/>
  <rect x="60" y="170" width="60" height="4" rx="2" fill="#FF8C42"/>
  <path d="M80 100 L80 70 Q80 50 95 45 Q100 35 110 35 Q115 30 128 30 Q141 30 146 35 Q156 35 161 45 Q176 50 176 70 L176 100 Z" fill="#2E86DE"/>
  <ellipse cx="128" cy="100" rx="48" ry="12" fill="#4A9EEC"/>
  <path d="M110 45 Q110 55 110 65" stroke="#1A5FA0" stroke-width="3" fill="none" stroke-linecap="round"/>
  <path d="M128 40 Q128 50 128 65" stroke="#1A5FA0" stroke-width="3" fill="none" stroke-linecap="round"/>
  <path d="M146 45 Q146 55 146 65" stroke="#1A5FA0" stroke-width="3" fill="none" stroke-linecap="round"/>
</svg>